<mxfile host="app.diagrams.net" modified="2023-08-15T09:07:10.127Z" agent="Mozilla/5.0 (Windows NT 10.0; Win64; x64) AppleWebKit/537.36 (KHTML, like Gecko) Chrome/115.0.0.0 Safari/537.36" etag="JhZTpvKwu3Kt6ELkzGOw" version="21.6.7" type="github">
  <diagram name="Page-1" id="KKHHrv07xGqnxkbz7HhZ">
    <mxGraphModel dx="2537" dy="2074" grid="1" gridSize="10" guides="1" tooltips="1" connect="1" arrows="1" fold="1" page="1" pageScale="1" pageWidth="850" pageHeight="1100" math="0" shadow="0">
      <root>
        <mxCell id="0" />
        <mxCell id="1" parent="0" />
        <mxCell id="jajijYvhkttsPSizEgQ4-75" value="" style="rounded=0;whiteSpace=wrap;html=1;fillColor=#FF0000;" vertex="1" parent="1">
          <mxGeometry x="-400" y="620" width="450" height="310" as="geometry" />
        </mxCell>
        <mxCell id="jajijYvhkttsPSizEgQ4-72" value="" style="rounded=0;whiteSpace=wrap;html=1;fillColor=#00CC00;" vertex="1" parent="1">
          <mxGeometry x="70" y="620" width="840" height="310" as="geometry" />
        </mxCell>
        <mxCell id="jajijYvhkttsPSizEgQ4-78" style="edgeStyle=orthogonalEdgeStyle;rounded=0;orthogonalLoop=1;jettySize=auto;html=1;exitX=1;exitY=0.75;exitDx=0;exitDy=0;entryX=0;entryY=0.5;entryDx=0;entryDy=0;entryPerimeter=0;" edge="1" parent="1" source="jajijYvhkttsPSizEgQ4-71" target="jajijYvhkttsPSizEgQ4-39">
          <mxGeometry relative="1" as="geometry" />
        </mxCell>
        <mxCell id="jajijYvhkttsPSizEgQ4-71" value="" style="rounded=1;whiteSpace=wrap;html=1;fillColor=#007FFF;" vertex="1" parent="1">
          <mxGeometry x="10" y="90" width="850" height="390" as="geometry" />
        </mxCell>
        <mxCell id="jajijYvhkttsPSizEgQ4-23" style="edgeStyle=orthogonalEdgeStyle;rounded=0;orthogonalLoop=1;jettySize=auto;html=1;exitX=1;exitY=0.5;exitDx=0;exitDy=0;entryX=0.5;entryY=0;entryDx=0;entryDy=0;" edge="1" parent="1" source="jajijYvhkttsPSizEgQ4-1" target="jajijYvhkttsPSizEgQ4-2">
          <mxGeometry relative="1" as="geometry" />
        </mxCell>
        <mxCell id="jajijYvhkttsPSizEgQ4-57" style="edgeStyle=orthogonalEdgeStyle;rounded=0;orthogonalLoop=1;jettySize=auto;html=1;exitX=0.75;exitY=0;exitDx=0;exitDy=0;entryX=0;entryY=0.5;entryDx=0;entryDy=0;entryPerimeter=0;" edge="1" parent="1" source="jajijYvhkttsPSizEgQ4-1" target="jajijYvhkttsPSizEgQ4-40">
          <mxGeometry relative="1" as="geometry" />
        </mxCell>
        <mxCell id="jajijYvhkttsPSizEgQ4-58" style="edgeStyle=orthogonalEdgeStyle;rounded=0;orthogonalLoop=1;jettySize=auto;html=1;exitX=0.75;exitY=0;exitDx=0;exitDy=0;" edge="1" parent="1" source="jajijYvhkttsPSizEgQ4-1" target="jajijYvhkttsPSizEgQ4-41">
          <mxGeometry relative="1" as="geometry" />
        </mxCell>
        <mxCell id="jajijYvhkttsPSizEgQ4-60" style="edgeStyle=orthogonalEdgeStyle;rounded=0;orthogonalLoop=1;jettySize=auto;html=1;exitX=0.25;exitY=0;exitDx=0;exitDy=0;" edge="1" parent="1" source="jajijYvhkttsPSizEgQ4-1" target="jajijYvhkttsPSizEgQ4-42">
          <mxGeometry relative="1" as="geometry" />
        </mxCell>
        <mxCell id="jajijYvhkttsPSizEgQ4-62" style="edgeStyle=orthogonalEdgeStyle;rounded=0;orthogonalLoop=1;jettySize=auto;html=1;exitX=0.75;exitY=0;exitDx=0;exitDy=0;entryX=0.523;entryY=0.992;entryDx=0;entryDy=0;entryPerimeter=0;" edge="1" parent="1" source="jajijYvhkttsPSizEgQ4-1" target="jajijYvhkttsPSizEgQ4-3">
          <mxGeometry relative="1" as="geometry" />
        </mxCell>
        <mxCell id="jajijYvhkttsPSizEgQ4-68" style="edgeStyle=orthogonalEdgeStyle;rounded=0;orthogonalLoop=1;jettySize=auto;html=1;exitX=0.5;exitY=1;exitDx=0;exitDy=0;entryX=0.5;entryY=0;entryDx=0;entryDy=0;" edge="1" parent="1" source="jajijYvhkttsPSizEgQ4-1" target="jajijYvhkttsPSizEgQ4-7">
          <mxGeometry relative="1" as="geometry" />
        </mxCell>
        <mxCell id="jajijYvhkttsPSizEgQ4-69" style="edgeStyle=orthogonalEdgeStyle;rounded=0;orthogonalLoop=1;jettySize=auto;html=1;exitX=0.5;exitY=1;exitDx=0;exitDy=0;entryX=0.5;entryY=0;entryDx=0;entryDy=0;" edge="1" parent="1" source="jajijYvhkttsPSizEgQ4-1" target="jajijYvhkttsPSizEgQ4-10">
          <mxGeometry relative="1" as="geometry" />
        </mxCell>
        <mxCell id="jajijYvhkttsPSizEgQ4-70" style="edgeStyle=orthogonalEdgeStyle;rounded=0;orthogonalLoop=1;jettySize=auto;html=1;exitX=0.5;exitY=1;exitDx=0;exitDy=0;entryX=0.5;entryY=0;entryDx=0;entryDy=0;" edge="1" parent="1" source="jajijYvhkttsPSizEgQ4-1" target="jajijYvhkttsPSizEgQ4-9">
          <mxGeometry relative="1" as="geometry" />
        </mxCell>
        <mxCell id="jajijYvhkttsPSizEgQ4-1" value="&lt;font style=&quot;font-size: 18px;&quot; face=&quot;Verdana&quot;&gt;SIEM All-in-One&lt;/font&gt;" style="rounded=1;whiteSpace=wrap;html=1;fillColor=#994C00;" vertex="1" parent="1">
          <mxGeometry x="280" y="200" width="240" height="80" as="geometry" />
        </mxCell>
        <mxCell id="jajijYvhkttsPSizEgQ4-24" style="edgeStyle=orthogonalEdgeStyle;rounded=0;orthogonalLoop=1;jettySize=auto;html=1;exitX=0;exitY=0.5;exitDx=0;exitDy=0;entryX=1;entryY=1;entryDx=0;entryDy=0;" edge="1" parent="1" source="jajijYvhkttsPSizEgQ4-2" target="jajijYvhkttsPSizEgQ4-1">
          <mxGeometry relative="1" as="geometry" />
        </mxCell>
        <mxCell id="jajijYvhkttsPSizEgQ4-2" value="&lt;font style=&quot;font-size: 18px;&quot; face=&quot;Verdana&quot;&gt;AppHost&lt;/font&gt;" style="rounded=1;whiteSpace=wrap;html=1;fillColor=#994C00;" vertex="1" parent="1">
          <mxGeometry x="570" y="320" width="160" height="80" as="geometry" />
        </mxCell>
        <mxCell id="jajijYvhkttsPSizEgQ4-3" value="&lt;font style=&quot;font-size: 18px;&quot; face=&quot;Verdana&quot;&gt;Internet&lt;/font&gt;" style="ellipse;shape=cloud;whiteSpace=wrap;html=1;fillColor=#660066;" vertex="1" parent="1">
          <mxGeometry x="275" y="-100" width="250" height="130" as="geometry" />
        </mxCell>
        <mxCell id="jajijYvhkttsPSizEgQ4-4" value="&lt;font style=&quot;font-size: 18px;&quot; face=&quot;Verdana&quot;&gt;QRadar&lt;/font&gt;" style="rounded=1;whiteSpace=wrap;html=1;fillColor=#FFFFFF;" vertex="1" parent="1">
          <mxGeometry x="570" y="420" width="160" height="40" as="geometry" />
        </mxCell>
        <mxCell id="jajijYvhkttsPSizEgQ4-65" style="edgeStyle=orthogonalEdgeStyle;rounded=0;orthogonalLoop=1;jettySize=auto;html=1;exitX=0.5;exitY=0;exitDx=0;exitDy=0;entryX=0.5;entryY=1;entryDx=0;entryDy=0;" edge="1" parent="1" source="jajijYvhkttsPSizEgQ4-5" target="jajijYvhkttsPSizEgQ4-1">
          <mxGeometry relative="1" as="geometry" />
        </mxCell>
        <mxCell id="jajijYvhkttsPSizEgQ4-5" value="&lt;font style=&quot;font-size: 18px;&quot; face=&quot;Verdana&quot;&gt;Syslog&lt;/font&gt;" style="rounded=1;whiteSpace=wrap;html=1;fillColor=#994C00;" vertex="1" parent="1">
          <mxGeometry x="150" y="720" width="100" height="80" as="geometry" />
        </mxCell>
        <mxCell id="jajijYvhkttsPSizEgQ4-66" style="edgeStyle=orthogonalEdgeStyle;rounded=0;orthogonalLoop=1;jettySize=auto;html=1;exitX=0.5;exitY=0;exitDx=0;exitDy=0;" edge="1" parent="1" source="jajijYvhkttsPSizEgQ4-6">
          <mxGeometry relative="1" as="geometry">
            <mxPoint x="400" y="280" as="targetPoint" />
          </mxGeometry>
        </mxCell>
        <mxCell id="jajijYvhkttsPSizEgQ4-6" value="&lt;font face=&quot;Verdana&quot; style=&quot;font-size: 18px;&quot;&gt;SNMP&lt;/font&gt;" style="rounded=1;whiteSpace=wrap;html=1;fillColor=#994C00;" vertex="1" parent="1">
          <mxGeometry x="390" y="720" width="100" height="80" as="geometry" />
        </mxCell>
        <mxCell id="jajijYvhkttsPSizEgQ4-7" value="&lt;font size=&quot;3&quot; face=&quot;Verdana&quot;&gt;JDBC&lt;/font&gt;" style="rounded=1;whiteSpace=wrap;html=1;fillColor=#994C00;" vertex="1" parent="1">
          <mxGeometry x="270" y="720" width="100" height="80" as="geometry" />
        </mxCell>
        <mxCell id="jajijYvhkttsPSizEgQ4-67" style="edgeStyle=orthogonalEdgeStyle;rounded=0;orthogonalLoop=1;jettySize=auto;html=1;exitX=0.5;exitY=0;exitDx=0;exitDy=0;" edge="1" parent="1" source="jajijYvhkttsPSizEgQ4-8">
          <mxGeometry relative="1" as="geometry">
            <mxPoint x="400" y="280" as="targetPoint" />
          </mxGeometry>
        </mxCell>
        <mxCell id="jajijYvhkttsPSizEgQ4-8" value="&lt;font style=&quot;font-size: 18px;&quot; face=&quot;Verdana&quot;&gt;WInCollect&lt;/font&gt;" style="rounded=1;whiteSpace=wrap;html=1;fillColor=#994C00;" vertex="1" parent="1">
          <mxGeometry x="630" y="720" width="100" height="80" as="geometry" />
        </mxCell>
        <mxCell id="jajijYvhkttsPSizEgQ4-9" value="&lt;font style=&quot;font-size: 18px;&quot; face=&quot;Verdana&quot;&gt;API&lt;/font&gt;" style="rounded=1;whiteSpace=wrap;html=1;fillColor=#994C00;" vertex="1" parent="1">
          <mxGeometry x="750" y="720" width="100" height="80" as="geometry" />
        </mxCell>
        <mxCell id="jajijYvhkttsPSizEgQ4-10" value="&lt;font style=&quot;font-size: 18px;&quot; face=&quot;Verdana&quot;&gt;FTP/SCP&lt;br&gt;/SFTP&lt;/font&gt;" style="rounded=1;whiteSpace=wrap;html=1;fillColor=#994C00;" vertex="1" parent="1">
          <mxGeometry x="510" y="720" width="100" height="80" as="geometry" />
        </mxCell>
        <mxCell id="jajijYvhkttsPSizEgQ4-11" value="&lt;font style=&quot;font-size: 18px;&quot; face=&quot;Verdana&quot;&gt;Log Sources&lt;/font&gt;" style="rounded=1;whiteSpace=wrap;html=1;fillColor=#FFFFFF;" vertex="1" parent="1">
          <mxGeometry x="440" y="890" width="160" height="40" as="geometry" />
        </mxCell>
        <mxCell id="jajijYvhkttsPSizEgQ4-12" value="&lt;font style=&quot;font-size: 18px;&quot; face=&quot;Verdana&quot;&gt;Flow Sources&lt;/font&gt;" style="rounded=1;whiteSpace=wrap;html=1;" vertex="1" parent="1">
          <mxGeometry x="-240.5" y="877.5" width="160" height="40" as="geometry" />
        </mxCell>
        <mxCell id="jajijYvhkttsPSizEgQ4-64" style="edgeStyle=orthogonalEdgeStyle;rounded=0;orthogonalLoop=1;jettySize=auto;html=1;exitX=0.5;exitY=0;exitDx=0;exitDy=0;entryX=0.25;entryY=1;entryDx=0;entryDy=0;" edge="1" parent="1" source="jajijYvhkttsPSizEgQ4-13" target="jajijYvhkttsPSizEgQ4-1">
          <mxGeometry relative="1" as="geometry" />
        </mxCell>
        <mxCell id="jajijYvhkttsPSizEgQ4-13" value="&lt;font style=&quot;font-size: 18px;&quot; face=&quot;Verdana&quot;&gt;NetFlow , sFlow&amp;nbsp; ,&amp;nbsp; J-Flow&lt;/font&gt;" style="rounded=1;whiteSpace=wrap;html=1;fillColor=#994C00;" vertex="1" parent="1">
          <mxGeometry x="-290" y="700" width="240" height="80" as="geometry" />
        </mxCell>
        <mxCell id="jajijYvhkttsPSizEgQ4-25" value="&lt;font style=&quot;font-size: 14px;&quot; face=&quot;Verdana&quot;&gt;TCP/UDP&lt;br&gt;514&lt;/font&gt;" style="text;html=1;align=center;verticalAlign=middle;resizable=0;points=[];autosize=1;strokeColor=none;fillColor=none;" vertex="1" parent="1">
          <mxGeometry x="110" y="660" width="90" height="50" as="geometry" />
        </mxCell>
        <mxCell id="jajijYvhkttsPSizEgQ4-27" value="&lt;div style=&quot;text-align: center;&quot;&gt;&lt;span style=&quot;background-color: initial; font-size: 14px;&quot;&gt;&lt;font face=&quot;Verdana&quot;&gt;TCP&lt;/font&gt;&lt;/span&gt;&lt;/div&gt;&lt;div style=&quot;text-align: center;&quot;&gt;&lt;span style=&quot;background-color: initial; font-size: 14px;&quot;&gt;&lt;font face=&quot;Verdana&quot;&gt;1433&lt;/font&gt;&lt;/span&gt;&lt;/div&gt;" style="text;whiteSpace=wrap;html=1;" vertex="1" parent="1">
          <mxGeometry x="270" y="660" width="40" height="40" as="geometry" />
        </mxCell>
        <mxCell id="jajijYvhkttsPSizEgQ4-28" value="&lt;div style=&quot;text-align: center;&quot;&gt;&lt;font face=&quot;Verdana&quot;&gt;&lt;span style=&quot;font-size: 14px;&quot;&gt;UDP&lt;/span&gt;&lt;/font&gt;&lt;/div&gt;&lt;div style=&quot;text-align: center;&quot;&gt;&lt;font face=&quot;Verdana&quot;&gt;&lt;span style=&quot;font-size: 14px;&quot;&gt;162&lt;/span&gt;&lt;/font&gt;&lt;/div&gt;" style="text;whiteSpace=wrap;html=1;" vertex="1" parent="1">
          <mxGeometry x="405" y="660" width="40" height="40" as="geometry" />
        </mxCell>
        <mxCell id="jajijYvhkttsPSizEgQ4-29" value="&lt;div style=&quot;text-align: center;&quot;&gt;&lt;span style=&quot;background-color: initial; font-size: 14px;&quot;&gt;&lt;font face=&quot;Verdana&quot;&gt;TCP&lt;/font&gt;&lt;/span&gt;&lt;/div&gt;&lt;div style=&quot;text-align: center;&quot;&gt;&lt;font face=&quot;Verdana&quot;&gt;&lt;span style=&quot;font-size: 14px;&quot;&gt;21,22&lt;/span&gt;&lt;/font&gt;&lt;/div&gt;" style="text;whiteSpace=wrap;html=1;" vertex="1" parent="1">
          <mxGeometry x="520" y="660" width="40" height="40" as="geometry" />
        </mxCell>
        <mxCell id="jajijYvhkttsPSizEgQ4-30" value="&lt;div style=&quot;text-align: center;&quot;&gt;&lt;span style=&quot;background-color: initial; font-size: 14px;&quot;&gt;&lt;font face=&quot;Verdana&quot;&gt;TCP&lt;/font&gt;&lt;/span&gt;&lt;/div&gt;&lt;div style=&quot;text-align: center;&quot;&gt;&lt;font face=&quot;Verdana&quot;&gt;&lt;span style=&quot;font-size: 14px;&quot;&gt;514,8413&lt;/span&gt;&lt;/font&gt;&lt;/div&gt;" style="text;whiteSpace=wrap;html=1;" vertex="1" parent="1">
          <mxGeometry x="610" y="665" width="40" height="40" as="geometry" />
        </mxCell>
        <mxCell id="jajijYvhkttsPSizEgQ4-31" value="&lt;div style=&quot;text-align: center;&quot;&gt;&lt;span style=&quot;background-color: initial; font-size: 14px;&quot;&gt;&lt;font face=&quot;Verdana&quot;&gt;TCP&lt;/font&gt;&lt;/span&gt;&lt;/div&gt;&lt;div style=&quot;text-align: center;&quot;&gt;&lt;span style=&quot;background-color: initial; font-size: 14px;&quot;&gt;&lt;font face=&quot;Verdana&quot;&gt;433&lt;/font&gt;&lt;/span&gt;&lt;/div&gt;" style="text;whiteSpace=wrap;html=1;" vertex="1" parent="1">
          <mxGeometry x="770" y="665" width="40" height="40" as="geometry" />
        </mxCell>
        <mxCell id="jajijYvhkttsPSizEgQ4-32" value="" style="shape=mxgraph.cisco.routers.router;sketch=0;html=1;pointerEvents=1;dashed=0;fillColor=#036897;strokeColor=#ffffff;strokeWidth=2;verticalLabelPosition=bottom;verticalAlign=top;align=center;outlineConnect=0;" vertex="1" parent="1">
          <mxGeometry x="-158.5" y="797" width="78" height="53" as="geometry" />
        </mxCell>
        <mxCell id="jajijYvhkttsPSizEgQ4-33" value="" style="shape=mxgraph.cisco.switches.layer_2_remote_switch;sketch=0;html=1;pointerEvents=1;dashed=0;fillColor=#036897;strokeColor=#ffffff;strokeWidth=2;verticalLabelPosition=bottom;verticalAlign=top;align=center;outlineConnect=0;" vertex="1" parent="1">
          <mxGeometry x="-270" y="800" width="101" height="50" as="geometry" />
        </mxCell>
        <mxCell id="jajijYvhkttsPSizEgQ4-34" value="" style="shape=mxgraph.cisco.servers.fileserver;sketch=0;html=1;pointerEvents=1;dashed=0;fillColor=#036897;strokeColor=#ffffff;strokeWidth=2;verticalLabelPosition=bottom;verticalAlign=top;align=center;outlineConnect=0;" vertex="1" parent="1">
          <mxGeometry x="298.5" y="818" width="43" height="62" as="geometry" />
        </mxCell>
        <mxCell id="jajijYvhkttsPSizEgQ4-35" value="" style="shape=mxgraph.cisco.routers.router;sketch=0;html=1;pointerEvents=1;dashed=0;fillColor=#036897;strokeColor=#ffffff;strokeWidth=2;verticalLabelPosition=bottom;verticalAlign=top;align=center;outlineConnect=0;" vertex="1" parent="1">
          <mxGeometry x="200" y="820" width="58" height="37.5" as="geometry" />
        </mxCell>
        <mxCell id="jajijYvhkttsPSizEgQ4-36" value="" style="shape=mxgraph.cisco.switches.layer_2_remote_switch;sketch=0;html=1;pointerEvents=1;dashed=0;fillColor=#036897;strokeColor=#ffffff;strokeWidth=2;verticalLabelPosition=bottom;verticalAlign=top;align=center;outlineConnect=0;" vertex="1" parent="1">
          <mxGeometry x="139" y="820.75" width="61" height="36" as="geometry" />
        </mxCell>
        <mxCell id="jajijYvhkttsPSizEgQ4-37" value="" style="shape=mxgraph.cisco.servers.fileserver;sketch=0;html=1;pointerEvents=1;dashed=0;fillColor=#036897;strokeColor=#ffffff;strokeWidth=2;verticalLabelPosition=bottom;verticalAlign=top;align=center;outlineConnect=0;" vertex="1" parent="1">
          <mxGeometry x="658.5" y="815.5" width="43" height="62" as="geometry" />
        </mxCell>
        <mxCell id="jajijYvhkttsPSizEgQ4-38" value="" style="shape=mxgraph.cisco.servers.fileserver;sketch=0;html=1;pointerEvents=1;dashed=0;fillColor=#036897;strokeColor=#ffffff;strokeWidth=2;verticalLabelPosition=bottom;verticalAlign=top;align=center;outlineConnect=0;" vertex="1" parent="1">
          <mxGeometry x="538.5" y="818" width="43" height="62" as="geometry" />
        </mxCell>
        <mxCell id="jajijYvhkttsPSizEgQ4-39" value="" style="shape=mxgraph.cisco.servers.file_server;sketch=0;html=1;pointerEvents=1;dashed=0;fillColor=#036897;strokeColor=#ffffff;strokeWidth=2;verticalLabelPosition=bottom;verticalAlign=top;align=center;outlineConnect=0;" vertex="1" parent="1">
          <mxGeometry x="1030" y="360" width="80" height="120" as="geometry" />
        </mxCell>
        <mxCell id="jajijYvhkttsPSizEgQ4-40" value="" style="shape=mxgraph.cisco.servers.file_server;sketch=0;html=1;pointerEvents=1;dashed=0;fillColor=#036897;strokeColor=#ffffff;strokeWidth=2;verticalLabelPosition=bottom;verticalAlign=top;align=center;outlineConnect=0;" vertex="1" parent="1">
          <mxGeometry x="1030" y="50" width="80" height="120" as="geometry" />
        </mxCell>
        <mxCell id="jajijYvhkttsPSizEgQ4-41" value="" style="shape=mxgraph.cisco.servers.file_server;sketch=0;html=1;pointerEvents=1;dashed=0;fillColor=#036897;strokeColor=#ffffff;strokeWidth=2;verticalLabelPosition=bottom;verticalAlign=top;align=center;outlineConnect=0;" vertex="1" parent="1">
          <mxGeometry x="1030" y="200" width="80" height="120" as="geometry" />
        </mxCell>
        <mxCell id="jajijYvhkttsPSizEgQ4-42" value="" style="shape=mxgraph.cisco.servers.file_server;sketch=0;html=1;pointerEvents=1;dashed=0;fillColor=#036897;strokeColor=#ffffff;strokeWidth=2;verticalLabelPosition=bottom;verticalAlign=top;align=center;outlineConnect=0;" vertex="1" parent="1">
          <mxGeometry x="-310" y="120" width="80" height="120" as="geometry" />
        </mxCell>
        <mxCell id="jajijYvhkttsPSizEgQ4-55" style="edgeStyle=orthogonalEdgeStyle;rounded=0;orthogonalLoop=1;jettySize=auto;html=1;exitX=0.99;exitY=0.38;exitDx=0;exitDy=0;exitPerimeter=0;" edge="1" parent="1" source="jajijYvhkttsPSizEgQ4-44">
          <mxGeometry relative="1" as="geometry">
            <mxPoint y="337" as="targetPoint" />
          </mxGeometry>
        </mxCell>
        <mxCell id="jajijYvhkttsPSizEgQ4-44" value="" style="shape=mxgraph.cisco.people.pc_man;sketch=0;html=1;pointerEvents=1;dashed=0;fillColor=#036897;strokeColor=#ffffff;strokeWidth=2;verticalLabelPosition=bottom;verticalAlign=top;align=center;outlineConnect=0;" vertex="1" parent="1">
          <mxGeometry x="-310" y="280" width="104" height="149" as="geometry" />
        </mxCell>
        <mxCell id="jajijYvhkttsPSizEgQ4-45" value="&lt;div style=&quot;text-align: center;&quot;&gt;&lt;span style=&quot;background-color: initial; font-size: 14px;&quot;&gt;&lt;font face=&quot;Verdana&quot;&gt;TCP&lt;/font&gt;&lt;/span&gt;&lt;/div&gt;&lt;div style=&quot;text-align: center;&quot;&gt;&lt;font face=&quot;Verdana&quot;&gt;&lt;span style=&quot;font-size: 14px;&quot;&gt;123&lt;/span&gt;&lt;/font&gt;&lt;/div&gt;" style="text;whiteSpace=wrap;html=1;" vertex="1" parent="1">
          <mxGeometry x="-110" y="120" width="40" height="40" as="geometry" />
        </mxCell>
        <mxCell id="jajijYvhkttsPSizEgQ4-46" value="&lt;div style=&quot;text-align: center;&quot;&gt;&lt;span style=&quot;background-color: initial; font-size: 14px;&quot;&gt;&lt;font face=&quot;Verdana&quot;&gt;TCP&lt;/font&gt;&lt;/span&gt;&lt;/div&gt;&lt;div style=&quot;text-align: center;&quot;&gt;&lt;font face=&quot;Verdana&quot;&gt;&lt;span style=&quot;font-size: 14px;&quot;&gt;22,443&lt;/span&gt;&lt;/font&gt;&lt;/div&gt;" style="text;whiteSpace=wrap;html=1;" vertex="1" parent="1">
          <mxGeometry x="-110" y="280" width="40" height="40" as="geometry" />
        </mxCell>
        <mxCell id="jajijYvhkttsPSizEgQ4-47" value="&lt;div style=&quot;text-align: center;&quot;&gt;&lt;span style=&quot;background-color: initial; font-size: 14px;&quot;&gt;&lt;font face=&quot;Verdana&quot;&gt;TCP&lt;/font&gt;&lt;/span&gt;&lt;/div&gt;&lt;div style=&quot;text-align: center;&quot;&gt;&lt;font face=&quot;Verdana&quot;&gt;&lt;span style=&quot;font-size: 14px;&quot;&gt;23&lt;/span&gt;&lt;/font&gt;&lt;/div&gt;" style="text;whiteSpace=wrap;html=1;" vertex="1" parent="1">
          <mxGeometry x="960" y="360" width="40" height="40" as="geometry" />
        </mxCell>
        <mxCell id="jajijYvhkttsPSizEgQ4-48" value="&lt;div style=&quot;text-align: center;&quot;&gt;&lt;span style=&quot;background-color: initial; font-size: 14px;&quot;&gt;&lt;font face=&quot;Verdana&quot;&gt;TCP&lt;/font&gt;&lt;/span&gt;&lt;/div&gt;&lt;div style=&quot;text-align: center;&quot;&gt;&lt;font face=&quot;Verdana&quot;&gt;&lt;span style=&quot;font-size: 14px;&quot;&gt;35&lt;/span&gt;&lt;/font&gt;&lt;/div&gt;" style="text;whiteSpace=wrap;html=1;" vertex="1" parent="1">
          <mxGeometry x="960" y="210" width="40" height="40" as="geometry" />
        </mxCell>
        <mxCell id="jajijYvhkttsPSizEgQ4-49" value="&lt;div style=&quot;text-align: center;&quot;&gt;&lt;span style=&quot;background-color: initial; font-size: 14px;&quot;&gt;&lt;font face=&quot;Verdana&quot;&gt;TCP&lt;/font&gt;&lt;/span&gt;&lt;/div&gt;&lt;div style=&quot;text-align: center;&quot;&gt;&lt;font face=&quot;Verdana&quot;&gt;&lt;span style=&quot;font-size: 14px;&quot;&gt;389&lt;/span&gt;&lt;/font&gt;&lt;/div&gt;" style="text;whiteSpace=wrap;html=1;" vertex="1" parent="1">
          <mxGeometry x="950" y="60" width="40" height="40" as="geometry" />
        </mxCell>
        <mxCell id="jajijYvhkttsPSizEgQ4-51" value="&lt;div style=&quot;text-align: center;&quot;&gt;&lt;span style=&quot;background-color: initial; font-size: 14px;&quot;&gt;&lt;font face=&quot;Verdana&quot;&gt;TCP&lt;/font&gt;&lt;/span&gt;&lt;/div&gt;&lt;div style=&quot;text-align: center;&quot;&gt;&lt;font face=&quot;Verdana&quot;&gt;&lt;span style=&quot;font-size: 14px;&quot;&gt;22,5000&lt;/span&gt;&lt;/font&gt;&lt;/div&gt;" style="text;whiteSpace=wrap;html=1;" vertex="1" parent="1">
          <mxGeometry x="560" y="190" width="70" height="40" as="geometry" />
        </mxCell>
        <mxCell id="jajijYvhkttsPSizEgQ4-52" value="&lt;div style=&quot;text-align: center;&quot;&gt;&lt;span style=&quot;background-color: initial; font-size: 14px;&quot;&gt;&lt;font face=&quot;Verdana&quot;&gt;TCP&lt;/font&gt;&lt;/span&gt;&lt;/div&gt;&lt;div style=&quot;text-align: center;&quot;&gt;&lt;font face=&quot;Verdana&quot;&gt;&lt;span style=&quot;font-size: 14px;&quot;&gt;22,9000&lt;/span&gt;&lt;/font&gt;&lt;/div&gt;" style="text;whiteSpace=wrap;html=1;" vertex="1" parent="1">
          <mxGeometry x="490" y="360" width="70" height="40" as="geometry" />
        </mxCell>
        <mxCell id="jajijYvhkttsPSizEgQ4-76" value="&lt;font face=&quot;Verdana&quot;&gt;&lt;font style=&quot;font-size: 18px;&quot;&gt;194.153.113.31&lt;br&gt;194.153.113.31&lt;br&gt;&lt;/font&gt;&lt;span style=&quot;font-size: 18px;&quot;&gt;auto-update.qradar.ibmcloud.com&lt;br&gt;update.xforce-security.com&lt;br&gt;license.xforce-security.com&lt;br&gt;&lt;/span&gt;&lt;/font&gt;" style="text;html=1;align=center;verticalAlign=middle;resizable=0;points=[];autosize=1;strokeColor=none;fillColor=none;" vertex="1" parent="1">
          <mxGeometry x="-50" y="-120" width="330" height="120" as="geometry" />
        </mxCell>
      </root>
    </mxGraphModel>
  </diagram>
</mxfile>
